<?xml version="1.0" encoding="UTF-8" standalone="no"?>
<!-- Created with Inkscape (http://www.inkscape.org/) -->

<svg
   width="511.99997"
   height="511.99997"
   viewBox="0 0 135.46666 135.46666"
   version="1.1"
   id="svg1"
   xml:space="preserve"
   inkscape:version="1.3 (0e150ed6c4, 2023-07-21)"
   sodipodi:docname="floater.svg"
   xmlns:inkscape="http://www.inkscape.org/namespaces/inkscape"
   xmlns:sodipodi="http://sodipodi.sourceforge.net/DTD/sodipodi-0.dtd"
   xmlns="http://www.w3.org/2000/svg"
   xmlns:svg="http://www.w3.org/2000/svg"><sodipodi:namedview
     id="namedview1"
     pagecolor="#ffffff"
     bordercolor="#000000"
     borderopacity="0.30196078"
     inkscape:showpageshadow="true"
     inkscape:pageopacity="0.0"
     inkscape:pagecheckerboard="true"
     inkscape:deskcolor="#d1d1d1"
     inkscape:document-units="mm"
     showborder="true"
     inkscape:zoom="0.5"
     inkscape:cx="88"
     inkscape:cy="395"
     inkscape:window-width="1366"
     inkscape:window-height="715"
     inkscape:window-x="-8"
     inkscape:window-y="-8"
     inkscape:window-maximized="1"
     inkscape:current-layer="layer1" /><defs
     id="defs1" /><g
     inkscape:label="Floater"
     inkscape:groupmode="layer"
     id="layer1"
     transform="translate(-37.275341,-80.76667)"><ellipse
       style="display:inline;fill:#ff5d1f;fill-opacity:0;stroke:#ffffff;stroke-width:26.4583;stroke-dasharray:none;stroke-opacity:1"
       id="circle26"
       cx="105.00867"
       cy="148.5"
       inkscape:label="Background"
       rx="46.898911"
       ry="46.898926" /><path
       d="m 95.008768,87.466519 v 28.257711 c 3.164024,-0.96417 6.520522,-1.48675 9.999902,-1.48673 3.47938,-2e-5 6.83589,0.52256 9.99991,1.48673 V 87.466519 Z M 43.97519,138.5001 v 19.99981 h 28.257707 c -0.96417,-3.16402 -1.486742,-6.52053 -1.486731,-9.99991 -1.1e-5,-3.47938 0.522561,-6.83588 1.486731,-9.9999 z m 93.80926,0 c 0.96417,3.16402 1.48674,6.52052 1.48673,9.9999 1e-5,3.47938 -0.52256,6.83589 -1.48673,9.99991 h 28.49077 V 138.5001 Z m -42.775682,42.77568 v 28.23704 h 19.999812 v -28.23704 c -3.16402,0.96417 -6.52053,1.48674 -9.99991,1.48673 -3.47938,1e-5 -6.835878,-0.52256 -9.999902,-1.48673 z"
       style="display:inline;fill:#008a5b;stroke:#4b5564;stroke-width:0"
       id="path28"
       inkscape:label="Stripe" /><path
       d="M 105.00867,114.2375 A 34.262405,34.262402 0 0 0 70.746166,148.5 34.262405,34.262402 0 0 0 105.00867,182.76251 34.262405,34.262402 0 0 0 139.27118,148.5 34.262405,34.262402 0 0 0 105.00867,114.2375 Z"
       style="display:inline;fill:#ffffff;stroke:#4b5564;stroke-width:6.47519;fill-opacity:0"
       id="path27"
       inkscape:label="Inner" /><circle
       style="display:inline;fill:#ffffff;fill-opacity:0;stroke:#4b5564;stroke-width:5.29167;stroke-dasharray:none;stroke-opacity:1"
       id="path21"
       cx="105.00867"
       cy="148.5"
       r="59.34446"
       inkscape:label="Outline"
       transform="translate(-3.75e-7)" /></g></svg>
